<svg width="21" height="20" viewBox="0 0 21 20" fill="none" xmlns="http://www.w3.org/2000/svg">
<path d="M0.6 19.8001C0.44087 19.8001 0.288258 19.7369 0.175736 19.6244C0.0632142 19.5118 0 19.3592 0 19.2001C0 19.041 0.0632142 18.8884 0.175736 18.7758C0.288258 18.6633 0.44087 18.6001 0.6 18.6001H19.8C19.9591 18.6001 20.1117 18.6633 20.2243 18.7758C20.3368 18.8884 20.4 19.041 20.4 19.2001C20.4 19.3592 20.3368 19.5118 20.2243 19.6244C20.1117 19.7369 19.9591 19.8001 19.8 19.8001H0.6Z" fill="#FFD715"/>
<path d="M5.40313 18.6C5.40313 18.7591 5.33991 18.9117 5.22739 19.0243C5.11487 19.1368 4.96225 19.2 4.80313 19.2C4.644 19.2 4.49138 19.1368 4.37886 19.0243C4.26634 18.9117 4.20312 18.7591 4.20312 18.6V3.3696C4.20312 1.5264 5.52553 0 7.20312 0H13.2031C14.8807 0 16.2031 1.5264 16.2031 3.3696V18.6C16.2031 18.7591 16.1399 18.9117 16.0274 19.0243C15.9149 19.1368 15.7623 19.2 15.6031 19.2C15.444 19.2 15.2914 19.1368 15.1789 19.0243C15.0663 18.9117 15.0031 18.7591 15.0031 18.6V3.3696C15.0031 2.154 14.1763 1.2 13.2031 1.2H7.20312C6.22993 1.2 5.40313 2.154 5.40313 3.3696V18.6Z" fill="#FFD715"/>
<path d="M7.80313 3H9.00313C9.16225 3 9.31487 3.06321 9.42739 3.17574C9.53991 3.28826 9.60313 3.44087 9.60313 3.6V4.8C9.60313 4.95913 9.53991 5.11174 9.42739 5.22426C9.31487 5.33679 9.16225 5.4 9.00313 5.4H7.80313C7.644 5.4 7.49138 5.33679 7.37886 5.22426C7.26634 5.11174 7.20312 4.95913 7.20312 4.8V3.6C7.20312 3.44087 7.26634 3.28826 7.37886 3.17574C7.49138 3.06321 7.644 3 7.80313 3ZM11.4031 3H12.6031C12.7623 3 12.9149 3.06321 13.0274 3.17574C13.1399 3.28826 13.2031 3.44087 13.2031 3.6V4.8C13.2031 4.95913 13.1399 5.11174 13.0274 5.22426C12.9149 5.33679 12.7623 5.4 12.6031 5.4H11.4031C11.244 5.4 11.0914 5.33679 10.9789 5.22426C10.8663 5.11174 10.8031 4.95913 10.8031 4.8V3.6C10.8031 3.44087 10.8663 3.28826 10.9789 3.17574C11.0914 3.06321 11.244 3 11.4031 3ZM11.4031 6.6H12.6031C12.7623 6.6 12.9149 6.66321 13.0274 6.77574C13.1399 6.88826 13.2031 7.04087 13.2031 7.2V8.4C13.2031 8.55913 13.1399 8.71174 13.0274 8.82426C12.9149 8.93679 12.7623 9 12.6031 9H11.4031C11.244 9 11.0914 8.93679 10.9789 8.82426C10.8663 8.71174 10.8031 8.55913 10.8031 8.4V7.2C10.8031 7.04087 10.8663 6.88826 10.9789 6.77574C11.0914 6.66321 11.244 6.6 11.4031 6.6ZM11.4031 10.2H12.6031C12.7623 10.2 12.9149 10.2632 13.0274 10.3757C13.1399 10.4883 13.2031 10.6409 13.2031 10.8V12C13.2031 12.1591 13.1399 12.3117 13.0274 12.4243C12.9149 12.5368 12.7623 12.6 12.6031 12.6H11.4031C11.244 12.6 11.0914 12.5368 10.9789 12.4243C10.8663 12.3117 10.8031 12.1591 10.8031 12V10.8C10.8031 10.6409 10.8663 10.4883 10.9789 10.3757C11.0914 10.2632 11.244 10.2 11.4031 10.2ZM11.4031 13.8H12.6031C12.7623 13.8 12.9149 13.8632 13.0274 13.9757C13.1399 14.0883 13.2031 14.2409 13.2031 14.4V15.6C13.2031 15.7591 13.1399 15.9117 13.0274 16.0243C12.9149 16.1368 12.7623 16.2 12.6031 16.2H11.4031C11.244 16.2 11.0914 16.1368 10.9789 16.0243C10.8663 15.9117 10.8031 15.7591 10.8031 15.6V14.4C10.8031 14.2409 10.8663 14.0883 10.9789 13.9757C11.0914 13.8632 11.244 13.8 11.4031 13.8ZM7.80313 6.6H9.00313C9.16225 6.6 9.31487 6.66321 9.42739 6.77574C9.53991 6.88826 9.60313 7.04087 9.60313 7.2V8.4C9.60313 8.55913 9.53991 8.71174 9.42739 8.82426C9.31487 8.93679 9.16225 9 9.00313 9H7.80313C7.644 9 7.49138 8.93679 7.37886 8.82426C7.26634 8.71174 7.20312 8.55913 7.20312 8.4V7.2C7.20312 7.04087 7.26634 6.88826 7.37886 6.77574C7.49138 6.66321 7.644 6.6 7.80313 6.6ZM7.80313 13.8H9.00313C9.16225 13.8 9.31487 13.8632 9.42739 13.9757C9.53991 14.0883 9.60313 14.2409 9.60313 14.4V15.6C9.60313 15.7591 9.53991 15.9117 9.42739 16.0243C9.31487 16.1368 9.16225 16.2 9.00313 16.2H7.80313C7.644 16.2 7.49138 16.1368 7.37886 16.0243C7.26634 15.9117 7.20312 15.7591 7.20312 15.6V14.4C7.20312 14.2409 7.26634 14.0883 7.37886 13.9757C7.49138 13.8632 7.644 13.8 7.80313 13.8ZM7.80313 10.2H9.00313C9.16225 10.2 9.31487 10.2632 9.42739 10.3757C9.53991 10.4883 9.60313 10.6409 9.60313 10.8V12C9.60313 12.1591 9.53991 12.3117 9.42739 12.4243C9.31487 12.5368 9.16225 12.6 9.00313 12.6H7.80313C7.644 12.6 7.49138 12.5368 7.37886 12.4243C7.26634 12.3117 7.20312 12.1591 7.20312 12V10.8C7.20312 10.6409 7.26634 10.4883 7.37886 10.3757C7.49138 10.2632 7.644 10.2 7.80313 10.2Z" fill="#FFD715"/>
</svg>
